<svg width="222" height="38" viewBox="0 0 222 38" fill="none" xmlns="http://www.w3.org/2000/svg">
<path d="M5.928 36H22.872V29.328H5.928V36ZM5.928 9.072H22.872V2.4H5.928V9.072ZM5.928 21.6H21.912V15.072H5.928V21.6ZM0.552 2.4V36H8.328V2.4H0.552ZM47.9059 2.4L42.5299 12.144L37.3459 2.4H27.3139L37.6339 18.768L26.1139 36H36.1459L42.4819 24.816L48.6259 36H58.6579L47.3779 18.768L57.9379 2.4H47.9059ZM62.3801 2.4V36H70.6361V2.4H62.3801ZM74.3951 9.648H83.6111V36H91.7231V9.648H100.987V2.4H74.3951V9.648Z" fill="#AE2735"/>
<path d="M104.661 2.4V36H112.773V2.4H104.661ZM109.749 9.072H116.325C117.957 9.072 119.237 9.44 120.165 10.176C121.093 10.912 121.557 11.984 121.557 13.392C121.557 14.768 121.093 15.824 120.165 16.56C119.237 17.296 117.957 17.664 116.325 17.664H109.749V24.336H116.325C119.173 24.336 121.557 23.904 123.477 23.04C125.429 22.144 126.901 20.88 127.893 19.248C128.885 17.584 129.381 15.632 129.381 13.392C129.381 11.088 128.885 9.12 127.893 7.488C126.901 5.856 125.429 4.608 123.477 3.744C121.557 2.848 119.173 2.4 116.325 2.4H109.749V9.072ZM136.473 29.52H154.233L153.705 23.328H137.049L136.473 29.52ZM145.257 14.736L150.009 25.632L149.721 27.696L153.753 36H162.969L145.257 0.287999L127.593 36H136.761L140.937 27.36L140.553 25.584L145.257 14.736ZM170.186 24.192L164.521 28.272C165.29 29.872 166.362 31.344 167.738 32.688C169.114 34.032 170.73 35.104 172.586 35.904C174.474 36.672 176.506 37.056 178.682 37.056C180.25 37.056 181.77 36.816 183.242 36.336C184.746 35.888 186.074 35.216 187.226 34.32C188.41 33.424 189.338 32.32 190.01 31.008C190.714 29.664 191.066 28.144 191.066 26.448C191.066 25.04 190.842 23.792 190.394 22.704C189.946 21.616 189.322 20.656 188.522 19.824C187.754 18.992 186.858 18.288 185.834 17.712C184.81 17.104 183.706 16.576 182.522 16.128C180.954 15.584 179.61 15.072 178.49 14.592C177.402 14.112 176.554 13.584 175.946 13.008C175.37 12.432 175.082 11.76 175.082 10.992C175.082 10.256 175.386 9.648 175.994 9.168C176.602 8.656 177.482 8.4 178.634 8.4C179.498 8.4 180.298 8.576 181.034 8.928C181.802 9.248 182.49 9.712 183.098 10.32C183.738 10.896 184.298 11.584 184.778 12.384L190.97 8.928C190.394 7.776 189.562 6.64 188.474 5.52C187.386 4.4 186.01 3.472 184.346 2.736C182.714 2 180.778 1.632 178.538 1.632C176.362 1.632 174.378 2.016 172.586 2.784C170.826 3.52 169.418 4.608 168.362 6.048C167.338 7.488 166.826 9.2 166.826 11.184C166.826 12.848 167.13 14.272 167.738 15.456C168.346 16.608 169.114 17.6 170.042 18.432C170.97 19.232 171.946 19.888 172.97 20.4C174.026 20.912 174.954 21.312 175.754 21.6C177.386 22.208 178.698 22.752 179.69 23.232C180.682 23.712 181.402 24.224 181.85 24.768C182.298 25.28 182.522 25.968 182.522 26.832C182.522 27.856 182.138 28.672 181.37 29.28C180.602 29.856 179.626 30.144 178.442 30.144C177.322 30.144 176.25 29.904 175.226 29.424C174.234 28.944 173.306 28.256 172.442 27.36C171.61 26.464 170.858 25.408 170.186 24.192ZM200.186 24.192L194.521 28.272C195.29 29.872 196.362 31.344 197.738 32.688C199.114 34.032 200.73 35.104 202.586 35.904C204.474 36.672 206.506 37.056 208.682 37.056C210.25 37.056 211.77 36.816 213.242 36.336C214.746 35.888 216.074 35.216 217.226 34.32C218.41 33.424 219.338 32.32 220.01 31.008C220.714 29.664 221.066 28.144 221.066 26.448C221.066 25.04 220.842 23.792 220.394 22.704C219.946 21.616 219.322 20.656 218.522 19.824C217.754 18.992 216.858 18.288 215.834 17.712C214.81 17.104 213.706 16.576 212.522 16.128C210.954 15.584 209.61 15.072 208.49 14.592C207.402 14.112 206.554 13.584 205.946 13.008C205.37 12.432 205.082 11.76 205.082 10.992C205.082 10.256 205.386 9.648 205.994 9.168C206.602 8.656 207.482 8.4 208.634 8.4C209.498 8.4 210.298 8.576 211.034 8.928C211.802 9.248 212.49 9.712 213.098 10.32C213.738 10.896 214.298 11.584 214.778 12.384L220.97 8.928C220.394 7.776 219.562 6.64 218.474 5.52C217.386 4.4 216.01 3.472 214.346 2.736C212.714 2 210.778 1.632 208.538 1.632C206.362 1.632 204.378 2.016 202.586 2.784C200.826 3.52 199.418 4.608 198.362 6.048C197.338 7.488 196.826 9.2 196.826 11.184C196.826 12.848 197.13 14.272 197.738 15.456C198.346 16.608 199.114 17.6 200.042 18.432C200.97 19.232 201.946 19.888 202.97 20.4C204.026 20.912 204.954 21.312 205.754 21.6C207.386 22.208 208.698 22.752 209.69 23.232C210.682 23.712 211.402 24.224 211.85 24.768C212.298 25.28 212.522 25.968 212.522 26.832C212.522 27.856 212.138 28.672 211.37 29.28C210.602 29.856 209.626 30.144 208.442 30.144C207.322 30.144 206.25 29.904 205.226 29.424C204.234 28.944 203.306 28.256 202.442 27.36C201.61 26.464 200.858 25.408 200.186 24.192Z" fill="#E24170"/>
</svg>
